# Blender v2.81 (sub 16) OBJ File: ''
# www.blender.org
mtllib Wall.mtl
o Cube_Cube.009
v 0.000000 0.000000 5.000000
v 0.000000 6.000000 5.000000
v 0.000000 0.000000 -5.000000
v 0.000000 6.000000 -5.000000
v 0.500000 0.000000 5.000000
v 0.500000 6.000000 5.000000
v 0.500000 0.000000 -5.000000
v 0.500000 6.000000 -5.000000
vt 0.375000 0.000000
vt 0.625000 0.000000
vt 0.625000 0.250000
vt 0.375000 0.250000
vt 0.625000 0.500000
vt 0.375000 0.500000
vt 0.625000 0.750000
vt 0.375000 0.750000
vt 0.625000 1.000000
vt 0.375000 1.000000
vt 0.125000 0.500000
vt 0.125000 0.750000
vt 0.875000 0.500000
vt 0.875000 0.750000
vn -1.0000 0.0000 0.0000
vn 0.0000 0.0000 -1.0000
vn 1.0000 0.0000 0.0000
vn 0.0000 0.0000 1.0000
vn 0.0000 -1.0000 0.0000
vn 0.0000 1.0000 0.0000
g Cube_Cube.009_None
usemtl None
s off
f 1/1/1 2/2/1 4/3/1 3/4/1
f 3/4/2 4/3/2 8/5/2 7/6/2
f 7/6/3 8/5/3 6/7/3 5/8/3
f 5/8/4 6/7/4 2/9/4 1/10/4
f 3/11/5 7/6/5 5/8/5 1/12/5
f 8/5/6 4/13/6 2/14/6 6/7/6
o Cube.002_Cube.011
v -0.150000 5.850000 5.000000
v -0.500000 6.000000 5.000000
v -0.150000 5.850000 -5.000000
v -0.500000 6.000000 -5.000000
v 0.000000 5.500000 5.000000
v 0.000000 6.000000 5.000000
v 0.000000 5.500000 -5.000000
v 0.000000 6.000000 -5.000000
v -0.100000 5.600000 -5.000000
v -0.100000 5.600000 5.000000
v -0.400000 5.900000 5.000000
v -0.400000 5.900000 -5.000000
v -0.100000 0.000000 5.000000
v -0.100000 0.000000 -5.000000
v 0.000000 0.000000 5.000000
v 0.000000 0.000000 -5.000000
v -0.072149 0.100000 5.000000
v -0.100000 0.072149 5.000000
v -0.091843 0.091843 5.000000
v -0.072149 0.100000 -4.999999
v -0.100000 0.072149 -5.000000
v -0.091843 0.091843 -4.999996
v 0.000001 0.130000 5.000000
v 0.000000 0.072149 5.000000
v -0.000001 0.091843 5.000000
v 0.000001 0.130000 -5.000000
v 0.000000 0.072149 -5.000000
v -0.000001 0.091843 -4.999998
vt 0.612500 0.000000
vt 0.625000 0.000000
vt 0.625000 0.250000
vt 0.612500 0.250000
vt 0.375000 0.250000
vt 0.875000 0.500000
vt 0.625000 0.500000
vt 0.362500 0.500000
vt 0.375000 0.500000
vt 0.375000 0.750000
vt 0.362500 0.750000
vt 0.625000 0.750000
vt 0.375000 0.000000
vt 0.875000 0.750000
vt 0.125000 0.500000
vt 0.125000 0.750000
vt 0.694628 0.500696
vt 0.805372 0.500696
vt 0.805372 0.749304
vt 0.694628 0.749304
vt 0.375000 0.500000
vt 0.555372 0.500000
vt 0.555372 0.750000
vt 0.375000 0.750000
vt 0.375000 0.000000
vt 0.555372 0.000000
vt 0.555372 0.250000
vt 0.375000 0.250000
vt 0.125000 0.500000
vt 0.125000 0.750000
vt 0.875000 0.500204
vt 0.875000 0.749796
vt 0.625000 0.000204
vt 0.625000 0.249796
vt 0.645393 0.500000
vt 0.854607 0.500000
vt 0.625000 0.270393
vt 0.625000 0.479607
vt 0.625000 0.749796
vt 0.625000 0.500204
vt 0.854607 0.750000
vt 0.645393 0.750000
vt 0.625000 0.770393
vt 0.625000 0.979607
vt 0.555372 1.000000
vt 0.375000 1.000000
vn -0.7071 -0.7071 0.0000
vn 0.0000 0.0000 -1.0000
vn 1.0000 0.0000 0.0000
vn 0.0000 0.0000 1.0000
vn -0.9806 -0.1961 0.0000
vn 0.0000 1.0000 0.0000
vn -0.1961 -0.9806 0.0000
vn -0.3839 0.9234 0.0000
vn -1.0000 0.0000 0.0000
vn 0.0000 -1.0000 0.0000
vn -0.3827 0.9239 0.0000
vn -0.9239 0.3827 0.0000
vn 0.0000 -0.0001 -1.0000
vn -0.0000 0.0002 -1.0000
vn 1.0000 -0.0001 0.0000
vn 1.0000 0.0001 0.0000
g Cube.002_Cube.011_None
usemtl None
s off
f 19/15/7 10/16/7 12/17/7 20/18/7
f 11/19/8 20/18/8 12/20/8 16/21/8
f 17/22/7 15/23/7 13/24/7 18/25/7
f 15/23/9 16/21/9 14/26/9 13/24/9
f 19/15/10 9/27/10 14/26/10 10/28/10
f 11/29/11 17/22/11 18/25/11 9/30/11
f 16/21/12 12/20/12 10/28/12 14/26/12
f 14/26/10 9/30/10 18/25/10 13/24/10
f 17/22/8 11/19/8 16/21/8 15/23/8
f 9/27/13 19/15/13 20/18/13 11/19/13
f 34/31/14 28/32/14 25/33/14 31/34/14
f 24/35/9 35/36/9 32/37/9 23/38/9
f 21/39/15 26/40/15 29/41/15 22/42/15
f 22/43/16 24/35/16 23/38/16 21/44/16
f 22/42/8 29/41/8 35/36/8 24/35/8
f 25/33/17 28/32/17 30/45/17 27/46/17
f 27/47/18 30/48/18 29/41/18 26/40/18
f 28/32/19 34/31/19 36/49/19 30/50/19
f 30/51/20 36/52/20 35/36/20 29/41/20
f 34/31/21 31/34/21 33/53/21 36/54/21
f 36/54/22 33/53/22 32/37/22 35/36/22
f 31/34/10 25/33/10 27/55/10 33/56/10
f 33/57/10 27/58/10 26/59/10 32/37/10
f 23/38/10 32/37/10 26/59/10 21/60/10
