# Blender v2.81 (sub 16) OBJ File: ''
# www.blender.org
mtllib Fence.mtl
o f.005
v -0.949677 0.000000 0.061581
v -0.801863 0.000000 0.061581
v -0.801863 3.299514 0.061582
v -0.949677 3.000000 0.061582
v -0.801863 3.299514 -0.061581
v -0.949677 3.000000 -0.061581
v -0.801863 0.000000 -0.061582
v -0.949677 0.000000 -0.061582
v -0.648459 0.000000 0.061581
v -0.648459 0.000000 -0.061582
v -0.648459 3.000000 -0.061581
v -0.648459 3.000000 0.061582
v -0.149677 0.000000 0.061581
v -0.001863 0.000000 0.061581
v -0.001863 3.299514 0.061582
v -0.149677 3.000000 0.061582
v -0.001863 3.299514 -0.061581
v -0.149677 3.000000 -0.061581
v -0.001863 0.000000 -0.061582
v -0.149677 0.000000 -0.061582
v 0.151541 0.000000 0.061581
v 0.151541 0.000000 -0.061582
v 0.151541 3.000000 -0.061581
v 0.151541 3.000000 0.061582
v -0.549677 0.000000 0.061581
v -0.401863 0.000000 0.061581
v -0.401863 3.299514 0.061582
v -0.549677 3.000000 0.061582
v -0.401863 3.299514 -0.061581
v -0.549677 3.000000 -0.061581
v -0.401863 0.000000 -0.061582
v -0.549677 0.000000 -0.061582
v -0.248459 0.000000 0.061581
v -0.248459 0.000000 -0.061582
v -0.248459 3.000000 -0.061581
v -0.248459 3.000000 0.061582
v 0.250323 0.000000 0.061581
v 0.398137 0.000000 0.061581
v 0.398137 3.299514 0.061582
v 0.250323 3.000000 0.061582
v 0.398137 3.299514 -0.061581
v 0.250323 3.000000 -0.061581
v 0.398137 0.000000 -0.061582
v 0.250323 0.000000 -0.061582
v 0.551541 0.000000 0.061581
v 0.551541 0.000000 -0.061582
v 0.551541 3.000000 -0.061581
v 0.551541 3.000000 0.061582
v 0.650323 0.000000 0.061581
v 0.798137 0.000000 0.061581
v 0.798137 3.299514 0.061582
v 0.650323 3.000000 0.061582
v 0.798137 3.299514 -0.061581
v 0.650323 3.000000 -0.061581
v 0.798137 0.000000 -0.061582
v 0.650323 0.000000 -0.061582
v 0.951541 0.000000 0.061581
v 0.951541 0.000000 -0.061582
v 0.951541 3.000000 -0.061581
v 0.951541 3.000000 0.061582
v -1.000000 0.500000 -0.060000
v -1.000000 0.700000 -0.060000
v -1.000000 0.500000 -0.260000
v -1.000000 0.700000 -0.260000
v 1.000000 0.500000 -0.060000
v 1.000000 0.700000 -0.060000
v 1.000000 0.500000 -0.260000
v 1.000000 0.700000 -0.260000
v -1.000000 2.300000 -0.060000
v -1.000000 2.500000 -0.060000
v -1.000000 2.300000 -0.260000
v -1.000000 2.500000 -0.260000
v 1.000000 2.300000 -0.060000
v 1.000000 2.500000 -0.060000
v 1.000000 2.300000 -0.260000
v 1.000000 2.500000 -0.260000
v -1.000000 1.400000 -0.060000
v -1.000000 1.600000 -0.060000
v -1.000000 1.400000 -0.260000
v -1.000000 1.600000 -0.260000
v 1.000000 1.400000 -0.060000
v 1.000000 1.600000 -0.060000
v 1.000000 1.400000 -0.260000
v 1.000000 1.600000 -0.260000
vt 0.727433 0.363339
vt 0.636661 0.363339
vt 0.636661 0.272567
vt 0.727433 0.272567
vt 0.908977 0.363339
vt 0.818205 0.363339
vt 0.818205 0.272567
vt 0.908977 0.272567
vt 0.454614 0.363339
vt 0.363842 0.363339
vt 0.363842 0.272567
vt 0.454614 0.272567
vt 0.636158 0.363339
vt 0.545386 0.363339
vt 0.545386 0.272567
vt 0.636158 0.272567
vt 0.091023 0.908976
vt 0.000252 0.908976
vt 0.000252 0.818205
vt 0.091023 0.818205
vt 0.272567 0.908977
vt 0.181795 0.908976
vt 0.181795 0.818205
vt 0.272567 0.818205
vt 0.727433 0.726930
vt 0.636661 0.726930
vt 0.636661 0.636158
vt 0.727433 0.636158
vt 0.908977 0.726930
vt 0.818205 0.726930
vt 0.818205 0.636158
vt 0.908977 0.636158
vt 0.454614 0.726930
vt 0.363842 0.726930
vt 0.363842 0.636158
vt 0.454614 0.636158
vt 0.636158 0.726930
vt 0.545386 0.726930
vt 0.545386 0.636158
vt 0.636158 0.636158
vt 0.363339 0.363842
vt 0.363339 0.454614
vt 0.272567 0.454614
vt 0.272567 0.363842
vt 0.181795 0.454614
vt 0.181795 0.363842
vt 0.091023 0.454614
vt 0.091023 0.363842
vt 0.000252 0.454614
vt 0.000252 0.363842
vt 0.181795 0.273070
vt 0.091023 0.273070
vt 0.181795 0.545386
vt 0.091023 0.545386
vt 0.363339 0.091023
vt 0.363339 0.181795
vt 0.272567 0.181795
vt 0.272567 0.091023
vt 0.181795 0.181795
vt 0.181795 0.091023
vt 0.091023 0.181795
vt 0.091023 0.091023
vt 0.000252 0.181795
vt 0.000252 0.091023
vt 0.181795 0.000252
vt 0.091023 0.000252
vt 0.181795 0.272567
vt 0.091023 0.272567
vt 0.726930 0.818205
vt 0.726930 0.908977
vt 0.636158 0.908977
vt 0.636158 0.818205
vt 0.545386 0.908977
vt 0.545386 0.818205
vt 0.454614 0.908977
vt 0.454614 0.818205
vt 0.363842 0.908977
vt 0.363842 0.818205
vt 0.545386 0.727433
vt 0.454614 0.727433
vt 0.545386 0.999748
vt 0.454614 0.999748
vt 0.773661 0.363339
vt 0.773661 0.272567
vt 0.773661 0.181795
vt 0.818205 0.181795
vt 0.773661 0.091023
vt 0.818205 0.091023
vt 0.773661 0.000252
vt 0.818205 0.000252
vt 0.727433 0.181795
vt 0.727433 0.091023
vt 0.727433 0.000252
vt 0.500842 0.363339
vt 0.500842 0.272567
vt 0.500842 0.181795
vt 0.545386 0.181795
vt 0.500842 0.091023
vt 0.545386 0.091023
vt 0.500842 0.000252
vt 0.545386 0.000252
vt 0.454614 0.181795
vt 0.454614 0.091023
vt 0.454614 0.000252
vt 0.137252 0.908976
vt 0.137252 0.818205
vt 0.137252 0.727433
vt 0.181795 0.727433
vt 0.137252 0.636661
vt 0.181795 0.636661
vt 0.137252 0.545889
vt 0.181795 0.545889
vt 0.091023 0.727433
vt 0.091023 0.636661
vt 0.091023 0.545889
vt 0.773661 0.726930
vt 0.773661 0.636158
vt 0.773661 0.545386
vt 0.818205 0.545386
vt 0.773661 0.454614
vt 0.818205 0.454614
vt 0.773661 0.363842
vt 0.818205 0.363842
vt 0.727433 0.545386
vt 0.727433 0.454614
vt 0.727433 0.363842
vt 0.500842 0.726930
vt 0.500842 0.636158
vt 0.500842 0.545386
vt 0.545386 0.545386
vt 0.500842 0.454614
vt 0.545386 0.454614
vt 0.500842 0.363842
vt 0.545386 0.363842
vt 0.454614 0.545386
vt 0.454614 0.454614
vt 0.454614 0.363842
vn 1.0000 0.0000 0.0000
vn -1.0000 0.0000 0.0000
vn 0.0000 0.0000 -1.0000
vn 0.0000 -0.0000 1.0000
vn 0.0000 -1.0000 0.0000
vn 0.0000 1.0000 0.0000
vn -0.8967 0.4426 0.0000
vn 0.8901 0.4559 0.0000
g f.005_f.005_initialShadingGroup
usemtl initialShadingGroup
s off
f 9/1/1 10/2/1 11/3/1 12/4/1
f 8/5/2 1/6/2 4/7/2 6/8/2
f 21/9/1 22/10/1 23/11/1 24/12/1
f 20/13/2 13/14/2 16/15/2 18/16/2
f 33/17/1 34/18/1 35/19/1 36/20/1
f 32/21/2 25/22/2 28/23/2 30/24/2
f 45/25/1 46/26/1 47/27/1 48/28/1
f 44/29/2 37/30/2 40/31/2 42/32/2
f 57/33/1 58/34/1 59/35/1 60/36/1
f 56/37/2 49/38/2 52/39/2 54/40/2
f 61/41/2 62/42/2 64/43/2 63/44/2
f 63/44/3 64/43/3 68/45/3 67/46/3
f 67/46/1 68/45/1 66/47/1 65/48/1
f 65/48/4 66/47/4 62/49/4 61/50/4
f 63/51/5 67/46/5 65/48/5 61/52/5
f 68/45/6 64/53/6 62/54/6 66/47/6
f 69/55/2 70/56/2 72/57/2 71/58/2
f 71/58/3 72/57/3 76/59/3 75/60/3
f 75/60/1 76/59/1 74/61/1 73/62/1
f 73/62/4 74/61/4 70/63/4 69/64/4
f 71/65/5 75/60/5 73/62/5 69/66/5
f 76/59/6 72/67/6 70/68/6 74/61/6
f 77/69/2 78/70/2 80/71/2 79/72/2
f 79/72/3 80/71/3 84/73/3 83/74/3
f 83/74/1 84/73/1 82/75/1 81/76/1
f 81/76/4 82/75/4 78/77/4 77/78/4
f 79/79/5 83/74/5 81/76/5 77/80/5
f 84/73/6 80/81/6 78/82/6 82/75/6
s 1
f 1/6/4 2/83/4 3/84/4 4/7/4
f 4/7/7 3/84/6 5/85/6 6/86/7
f 6/86/3 5/85/3 7/87/3 8/88/3
f 8/88/5 7/87/5 2/89/5 1/90/5
f 3/84/6 12/4/8 11/91/8 5/85/6
f 7/87/3 5/85/3 11/91/3 10/92/3
f 2/89/5 7/87/5 10/92/5 9/93/5
f 3/84/4 2/83/4 9/1/4 12/4/4
f 13/14/4 14/94/4 15/95/4 16/15/4
f 16/15/7 15/95/6 17/96/6 18/97/7
f 18/97/3 17/96/3 19/98/3 20/99/3
f 20/99/5 19/98/5 14/100/5 13/101/5
f 15/95/6 24/12/8 23/102/8 17/96/6
f 19/98/3 17/96/3 23/102/3 22/103/3
f 14/100/5 19/98/5 22/103/5 21/104/5
f 15/95/4 14/94/4 21/9/4 24/12/4
f 25/22/4 26/105/4 27/106/4 28/23/4
f 28/23/7 27/106/6 29/107/6 30/108/7
f 30/108/3 29/107/3 31/109/3 32/110/3
f 32/110/5 31/109/5 26/111/5 25/112/5
f 27/106/6 36/20/8 35/113/8 29/107/6
f 31/109/3 29/107/3 35/113/3 34/114/3
f 26/111/5 31/109/5 34/114/5 33/115/5
f 27/106/4 26/105/4 33/17/4 36/20/4
f 37/30/4 38/116/4 39/117/4 40/31/4
f 40/31/7 39/117/6 41/118/6 42/119/7
f 42/119/3 41/118/3 43/120/3 44/121/3
f 44/121/5 43/120/5 38/122/5 37/123/5
f 39/117/6 48/28/8 47/124/8 41/118/6
f 43/120/3 41/118/3 47/124/3 46/125/3
f 38/122/5 43/120/5 46/125/5 45/126/5
f 39/117/4 38/116/4 45/25/4 48/28/4
f 49/38/4 50/127/4 51/128/4 52/39/4
f 52/39/7 51/128/6 53/129/6 54/130/7
f 54/130/3 53/129/3 55/131/3 56/132/3
f 56/132/5 55/131/5 50/133/5 49/134/5
f 51/128/6 60/36/8 59/135/8 53/129/6
f 55/131/3 53/129/3 59/135/3 58/136/3
f 50/133/5 55/131/5 58/136/5 57/137/5
f 51/128/4 50/127/4 57/33/4 60/36/4
